<svg id="visual" viewBox="0 0 1920 200" width="1920" height="200" xmlns="http://www.w3.org/2000/svg" xmlns:xlink="http://www.w3.org/1999/xlink" version="1.1"><path d="M0 21L29.2 25.3C58.3 29.7 116.7 38.3 174.8 44.3C233 50.3 291 53.7 349.2 50.3C407.3 47 465.7 37 523.8 33.3C582 29.7 640 32.3 698.2 34.3C756.3 36.3 814.7 37.7 872.8 40.7C931 43.7 989 48.3 1047.2 49C1105.3 49.7 1163.7 46.3 1221.8 42.3C1280 38.3 1338 33.7 1396.2 31C1454.3 28.3 1512.7 27.7 1570.8 27C1629 26.3 1687 25.7 1745.2 26.7C1803.3 27.7 1861.7 30.3 1890.8 31.7L1920 33L1920 0L1890.8 0C1861.7 0 1803.3 0 1745.2 0C1687 0 1629 0 1570.8 0C1512.7 0 1454.3 0 1396.2 0C1338 0 1280 0 1221.8 0C1163.7 0 1105.3 0 1047.2 0C989 0 931 0 872.8 0C814.7 0 756.3 0 698.2 0C640 0 582 0 523.8 0C465.7 0 407.3 0 349.2 0C291 0 233 0 174.8 0C116.7 0 58.3 0 29.2 0L0 0Z" fill="#8fffd0"></path><path d="M0 111L29.2 104.7C58.3 98.3 116.7 85.7 174.8 85.7C233 85.7 291 98.3 349.2 102.3C407.3 106.3 465.7 101.7 523.8 102C582 102.3 640 107.7 698.2 107.7C756.3 107.7 814.7 102.3 872.8 100C931 97.7 989 98.3 1047.2 95.3C1105.3 92.3 1163.7 85.7 1221.8 81.3C1280 77 1338 75 1396.2 79.3C1454.3 83.7 1512.7 94.3 1570.8 94C1629 93.7 1687 82.3 1745.2 83.3C1803.3 84.3 1861.7 97.7 1890.8 104.3L1920 111L1920 31L1890.8 29.7C1861.7 28.3 1803.3 25.7 1745.2 24.7C1687 23.7 1629 24.3 1570.8 25C1512.7 25.7 1454.3 26.3 1396.2 29C1338 31.7 1280 36.3 1221.8 40.3C1163.7 44.3 1105.3 47.7 1047.2 47C989 46.3 931 41.7 872.8 38.7C814.7 35.7 756.3 34.3 698.2 32.3C640 30.3 582 27.7 523.8 31.3C465.7 35 407.3 45 349.2 48.3C291 51.7 233 48.3 174.8 42.3C116.7 36.3 58.3 27.7 29.2 23.3L0 19Z" fill="#71ffc3"></path><path d="M0 145L29.2 143C58.3 141 116.7 137 174.8 139.7C233 142.3 291 151.7 349.2 153.7C407.3 155.7 465.7 150.3 523.8 151C582 151.7 640 158.3 698.2 156.7C756.3 155 814.7 145 872.8 142.7C931 140.3 989 145.7 1047.2 145.3C1105.3 145 1163.7 139 1221.8 136C1280 133 1338 133 1396.2 136C1454.3 139 1512.7 145 1570.8 150C1629 155 1687 159 1745.2 161.7C1803.3 164.3 1861.7 165.7 1890.8 166.3L1920 167L1920 109L1890.8 102.3C1861.7 95.7 1803.3 82.3 1745.2 81.3C1687 80.3 1629 91.7 1570.8 92C1512.7 92.3 1454.3 81.7 1396.2 77.3C1338 73 1280 75 1221.8 79.3C1163.7 83.7 1105.3 90.3 1047.2 93.3C989 96.3 931 95.7 872.8 98C814.7 100.3 756.3 105.7 698.2 105.7C640 105.7 582 100.3 523.8 100C465.7 99.7 407.3 104.3 349.2 100.3C291 96.3 233 83.7 174.8 83.7C116.7 83.7 58.3 96.3 29.2 102.7L0 109Z" fill="#4dffb4"></path><path d="M0 171L29.2 171.3C58.3 171.7 116.7 172.3 174.8 175C233 177.7 291 182.3 349.2 182C407.3 181.7 465.7 176.3 523.8 175C582 173.7 640 176.3 698.2 175.7C756.3 175 814.7 171 872.8 169.7C931 168.3 989 169.7 1047.2 170.7C1105.3 171.7 1163.7 172.3 1221.8 171.7C1280 171 1338 169 1396.2 168.7C1454.3 168.3 1512.7 169.7 1570.8 172.7C1629 175.7 1687 180.3 1745.2 183C1803.3 185.7 1861.7 186.3 1890.8 186.7L1920 187L1920 165L1890.8 164.3C1861.7 163.7 1803.3 162.3 1745.2 159.7C1687 157 1629 153 1570.8 148C1512.7 143 1454.3 137 1396.2 134C1338 131 1280 131 1221.8 134C1163.7 137 1105.3 143 1047.2 143.3C989 143.7 931 138.3 872.8 140.7C814.7 143 756.3 153 698.2 154.7C640 156.3 582 149.7 523.8 149C465.7 148.3 407.3 153.7 349.2 151.7C291 149.7 233 140.3 174.8 137.7C116.7 135 58.3 139 29.2 141L0 143Z" fill="#41e09c"></path><path d="M0 201L29.2 201C58.3 201 116.7 201 174.8 201C233 201 291 201 349.2 201C407.3 201 465.7 201 523.8 201C582 201 640 201 698.2 201C756.3 201 814.7 201 872.8 201C931 201 989 201 1047.2 201C1105.3 201 1163.7 201 1221.8 201C1280 201 1338 201 1396.2 201C1454.3 201 1512.7 201 1570.8 201C1629 201 1687 201 1745.2 201C1803.3 201 1861.7 201 1890.8 201L1920 201L1920 185L1890.8 184.7C1861.7 184.3 1803.3 183.7 1745.2 181C1687 178.3 1629 173.7 1570.8 170.7C1512.7 167.7 1454.3 166.3 1396.2 166.7C1338 167 1280 169 1221.8 169.7C1163.7 170.3 1105.3 169.7 1047.2 168.7C989 167.7 931 166.3 872.8 167.7C814.7 169 756.3 173 698.2 173.7C640 174.3 582 171.7 523.8 173C465.7 174.3 407.3 179.7 349.2 180C291 180.3 233 175.7 174.8 173C116.7 170.3 58.3 169.7 29.2 169.3L0 169Z" fill="#35c284"></path></svg>