<svg id="visual" viewBox="0 0 1920 200" width="1920" height="200" xmlns="http://www.w3.org/2000/svg" xmlns:xlink="http://www.w3.org/1999/xlink" version="1.1"><path d="M0 21L29.2 21C58.3 21 116.7 21 174.8 21.3C233 21.7 291 22.3 349.2 22.3C407.3 22.3 465.7 21.7 523.8 20.3C582 19 640 17 698.2 16C756.3 15 814.7 15 872.8 16C931 17 989 19 1047.2 21C1105.3 23 1163.7 25 1221.8 24C1280 23 1338 19 1396.2 17.7C1454.3 16.3 1512.7 17.7 1570.8 20C1629 22.3 1687 25.7 1745.2 28C1803.3 30.3 1861.7 31.7 1890.8 32.3L1920 33L1920 0L1890.8 0C1861.7 0 1803.3 0 1745.2 0C1687 0 1629 0 1570.8 0C1512.7 0 1454.3 0 1396.2 0C1338 0 1280 0 1221.8 0C1163.7 0 1105.3 0 1047.2 0C989 0 931 0 872.8 0C814.7 0 756.3 0 698.2 0C640 0 582 0 523.8 0C465.7 0 407.3 0 349.2 0C291 0 233 0 174.8 0C116.7 0 58.3 0 29.2 0L0 0Z" fill="#78d5a0"></path><path d="M0 55L29.2 54.7C58.3 54.3 116.7 53.7 174.8 52.3C233 51 291 49 349.2 49.3C407.3 49.7 465.7 52.3 523.8 50.3C582 48.3 640 41.7 698.2 41C756.3 40.3 814.7 45.7 872.8 50.7C931 55.7 989 60.3 1047.2 65.3C1105.3 70.3 1163.7 75.7 1221.8 72.3C1280 69 1338 57 1396.2 51C1454.3 45 1512.7 45 1570.8 48.7C1629 52.3 1687 59.7 1745.2 62C1803.3 64.3 1861.7 61.7 1890.8 60.3L1920 59L1920 31L1890.8 30.3C1861.7 29.7 1803.3 28.3 1745.2 26C1687 23.7 1629 20.3 1570.8 18C1512.7 15.7 1454.3 14.3 1396.2 15.7C1338 17 1280 21 1221.8 22C1163.7 23 1105.3 21 1047.2 19C989 17 931 15 872.8 14C814.7 13 756.3 13 698.2 14C640 15 582 17 523.8 18.3C465.7 19.7 407.3 20.3 349.2 20.3C291 20.3 233 19.7 174.8 19.3C116.7 19 58.3 19 29.2 19L0 19Z" fill="#5acc8c"></path><path d="M0 77L29.2 80C58.3 83 116.7 89 174.8 90.7C233 92.3 291 89.7 349.2 85.7C407.3 81.7 465.7 76.3 523.8 75C582 73.7 640 76.3 698.2 76C756.3 75.7 814.7 72.3 872.8 74.7C931 77 989 85 1047.2 91C1105.3 97 1163.7 101 1221.8 97.7C1280 94.3 1338 83.7 1396.2 79.3C1454.3 75 1512.7 77 1570.8 82C1629 87 1687 95 1745.2 98C1803.3 101 1861.7 99 1890.8 98L1920 97L1920 57L1890.8 58.3C1861.7 59.7 1803.3 62.3 1745.2 60C1687 57.7 1629 50.3 1570.8 46.7C1512.7 43 1454.3 43 1396.2 49C1338 55 1280 67 1221.8 70.3C1163.7 73.7 1105.3 68.3 1047.2 63.3C989 58.3 931 53.7 872.8 48.7C814.7 43.7 756.3 38.3 698.2 39C640 39.7 582 46.3 523.8 48.3C465.7 50.3 407.3 47.7 349.2 47.3C291 47 233 49 174.8 50.3C116.7 51.7 58.3 52.3 29.2 52.7L0 53Z" fill="#34c277"></path><path d="M0 161L29.2 162.7C58.3 164.3 116.7 167.7 174.8 168.7C233 169.7 291 168.3 349.2 163.3C407.3 158.3 465.7 149.7 523.8 147.7C582 145.7 640 150.3 698.2 151.3C756.3 152.3 814.7 149.7 872.8 150.3C931 151 989 155 1047.2 157C1105.3 159 1163.7 159 1221.8 155C1280 151 1338 143 1396.2 138C1454.3 133 1512.7 131 1570.8 130.7C1629 130.3 1687 131.7 1745.2 138.3C1803.3 145 1861.7 157 1890.8 163L1920 169L1920 95L1890.8 96C1861.7 97 1803.3 99 1745.2 96C1687 93 1629 85 1570.8 80C1512.7 75 1454.3 73 1396.2 77.3C1338 81.7 1280 92.3 1221.8 95.7C1163.7 99 1105.3 95 1047.2 89C989 83 931 75 872.8 72.7C814.7 70.3 756.3 73.7 698.2 74C640 74.3 582 71.7 523.8 73C465.7 74.3 407.3 79.7 349.2 83.7C291 87.7 233 90.3 174.8 88.7C116.7 87 58.3 81 29.2 78L0 75Z" fill="#2ca867"></path><path d="M0 201L29.2 201C58.3 201 116.7 201 174.8 201C233 201 291 201 349.2 201C407.3 201 465.7 201 523.8 201C582 201 640 201 698.2 201C756.3 201 814.7 201 872.8 201C931 201 989 201 1047.2 201C1105.3 201 1163.7 201 1221.8 201C1280 201 1338 201 1396.2 201C1454.3 201 1512.7 201 1570.8 201C1629 201 1687 201 1745.2 201C1803.3 201 1861.7 201 1890.8 201L1920 201L1920 167L1890.8 161C1861.7 155 1803.3 143 1745.2 136.3C1687 129.7 1629 128.3 1570.8 128.7C1512.7 129 1454.3 131 1396.2 136C1338 141 1280 149 1221.8 153C1163.7 157 1105.3 157 1047.2 155C989 153 931 149 872.8 148.3C814.7 147.7 756.3 150.3 698.2 149.3C640 148.3 582 143.7 523.8 145.7C465.7 147.7 407.3 156.3 349.2 161.3C291 166.3 233 167.7 174.8 166.7C116.7 165.7 58.3 162.3 29.2 160.7L0 159Z" fill="#258e58"></path></svg>