<svg id="visual" viewBox="0 0 1920 200" width="1920" height="200" xmlns="http://www.w3.org/2000/svg" xmlns:xlink="http://www.w3.org/1999/xlink" version="1.1"><path d="M0 39L29.2 36.3C58.3 33.7 116.7 28.3 174.8 28.7C233 29 291 35 349.2 36.3C407.3 37.7 465.7 34.3 523.8 35.7C582 37 640 43 698.2 46C756.3 49 814.7 49 872.8 46.3C931 43.7 989 38.3 1047.2 36.3C1105.3 34.3 1163.7 35.7 1221.8 34.7C1280 33.7 1338 30.3 1396.2 28.7C1454.3 27 1512.7 27 1570.8 30C1629 33 1687 39 1745.2 40C1803.3 41 1861.7 37 1890.8 35L1920 33L1920 0L1890.8 0C1861.7 0 1803.3 0 1745.2 0C1687 0 1629 0 1570.8 0C1512.7 0 1454.3 0 1396.2 0C1338 0 1280 0 1221.8 0C1163.7 0 1105.3 0 1047.2 0C989 0 931 0 872.8 0C814.7 0 756.3 0 698.2 0C640 0 582 0 523.8 0C465.7 0 407.3 0 349.2 0C291 0 233 0 174.8 0C116.7 0 58.3 0 29.2 0L0 0Z" fill="#6198ff"></path><path d="M0 69L29.2 75C58.3 81 116.7 93 174.8 96C233 99 291 93 349.2 87C407.3 81 465.7 75 523.8 74.3C582 73.7 640 78.3 698.2 80C756.3 81.7 814.7 80.3 872.8 83C931 85.7 989 92.3 1047.2 94C1105.3 95.7 1163.7 92.3 1221.8 90C1280 87.7 1338 86.3 1396.2 86.3C1454.3 86.3 1512.7 87.7 1570.8 89.7C1629 91.7 1687 94.3 1745.2 93.3C1803.3 92.3 1861.7 87.7 1890.8 85.3L1920 83L1920 31L1890.8 33C1861.7 35 1803.3 39 1745.2 38C1687 37 1629 31 1570.8 28C1512.7 25 1454.3 25 1396.2 26.7C1338 28.3 1280 31.7 1221.8 32.7C1163.7 33.7 1105.3 32.3 1047.2 34.3C989 36.3 931 41.7 872.8 44.3C814.7 47 756.3 47 698.2 44C640 41 582 35 523.8 33.7C465.7 32.3 407.3 35.7 349.2 34.3C291 33 233 27 174.8 26.7C116.7 26.3 58.3 31.7 29.2 34.3L0 37Z" fill="#3c80ff"></path><path d="M0 101L29.2 107.7C58.3 114.3 116.7 127.7 174.8 128.7C233 129.7 291 118.3 349.2 112C407.3 105.7 465.7 104.3 523.8 103.3C582 102.3 640 101.7 698.2 104.3C756.3 107 814.7 113 872.8 119C931 125 989 131 1047.2 128.3C1105.3 125.7 1163.7 114.3 1221.8 110.3C1280 106.3 1338 109.7 1396.2 113.7C1454.3 117.7 1512.7 122.3 1570.8 122.3C1629 122.3 1687 117.7 1745.2 114.7C1803.3 111.7 1861.7 110.3 1890.8 109.7L1920 109L1920 81L1890.8 83.3C1861.7 85.7 1803.3 90.3 1745.2 91.3C1687 92.3 1629 89.7 1570.8 87.7C1512.7 85.7 1454.3 84.3 1396.2 84.3C1338 84.3 1280 85.7 1221.8 88C1163.7 90.3 1105.3 93.7 1047.2 92C989 90.3 931 83.7 872.8 81C814.7 78.3 756.3 79.7 698.2 78C640 76.3 582 71.7 523.8 72.3C465.7 73 407.3 79 349.2 85C291 91 233 97 174.8 94C116.7 91 58.3 79 29.2 73L0 67Z" fill="#0066ff"></path><path d="M0 129L29.2 135.7C58.3 142.3 116.7 155.7 174.8 155C233 154.3 291 139.7 349.2 133.3C407.3 127 465.7 129 523.8 127.7C582 126.3 640 121.7 698.2 123.3C756.3 125 814.7 133 872.8 138.7C931 144.3 989 147.7 1047.2 146C1105.3 144.3 1163.7 137.7 1221.8 135C1280 132.3 1338 133.7 1396.2 138C1454.3 142.3 1512.7 149.7 1570.8 149.3C1629 149 1687 141 1745.2 135.3C1803.3 129.7 1861.7 126.3 1890.8 124.7L1920 123L1920 107L1890.8 107.7C1861.7 108.3 1803.3 109.7 1745.2 112.7C1687 115.7 1629 120.3 1570.8 120.3C1512.7 120.3 1454.3 115.7 1396.2 111.7C1338 107.7 1280 104.3 1221.8 108.3C1163.7 112.3 1105.3 123.7 1047.2 126.3C989 129 931 123 872.8 117C814.7 111 756.3 105 698.2 102.3C640 99.7 582 100.3 523.8 101.3C465.7 102.3 407.3 103.7 349.2 110C291 116.3 233 127.7 174.8 126.7C116.7 125.7 58.3 112.3 29.2 105.7L0 99Z" fill="#0059dd"></path><path d="M0 201L29.2 201C58.3 201 116.7 201 174.8 201C233 201 291 201 349.2 201C407.3 201 465.7 201 523.8 201C582 201 640 201 698.2 201C756.3 201 814.7 201 872.8 201C931 201 989 201 1047.2 201C1105.3 201 1163.7 201 1221.8 201C1280 201 1338 201 1396.2 201C1454.3 201 1512.7 201 1570.8 201C1629 201 1687 201 1745.2 201C1803.3 201 1861.7 201 1890.8 201L1920 201L1920 121L1890.8 122.7C1861.7 124.3 1803.3 127.7 1745.2 133.3C1687 139 1629 147 1570.8 147.3C1512.7 147.7 1454.3 140.3 1396.2 136C1338 131.7 1280 130.3 1221.8 133C1163.7 135.7 1105.3 142.3 1047.2 144C989 145.7 931 142.3 872.8 136.7C814.7 131 756.3 123 698.2 121.3C640 119.7 582 124.3 523.8 125.7C465.7 127 407.3 125 349.2 131.3C291 137.7 233 152.3 174.8 153C116.7 153.7 58.3 140.3 29.2 133.7L0 127Z" fill="#004cbb"></path></svg>